<svg xmlns="http://www.w3.org/2000/svg" viewBox="0 0 128 128" role="img" aria-labelledby="title desc">
  <title id="title">pw-env mark</title>
  <desc id="desc">Rounded square icon with a secret keyhole motif.</desc>
  <defs>
    <linearGradient id="pwenvGradient" x1="18" y1="18" x2="110" y2="110" gradientUnits="userSpaceOnUse">
      <stop offset="0" stop-color="#dbe7fb"/>
      <stop offset="1" stop-color="#9db7f5"/>
    </linearGradient>
  </defs>
  <rect x="8" y="8" width="112" height="112" rx="20" fill="#0f172a"/>
  <rect x="18" y="18" width="92" height="92" rx="16" fill="url(#pwenvGradient)"/>
  <path d="M64 36c-9.941 0-18 8.059-18 18 0 7.234 4.271 13.469 10.422 16.32V94h15.156V70.32C77.729 67.469 82 61.234 82 54c0-9.941-8.059-18-18-18Zm0 12c3.314 0 6 2.686 6 6s-2.686 6-6 6-6-2.686-6-6 2.686-6 6-6Z" fill="#0f172a"/>
  <rect x="34" y="82" width="60" height="8" rx="2" fill="#eff4fb" opacity="0.95"/>
</svg>